<svg width="44" height="44" viewBox="0 0 44 44" fill="none" xmlns="http://www.w3.org/2000/svg">
<circle cx="22" cy="22" r="22" fill="#EB4755"/>
<path d="M21.6084 10.867C21.6084 10.5497 21.4824 10.2455 21.2581 10.0212C21.0338 9.79686 20.7296 9.67084 20.4123 9.67084C20.0951 9.67084 19.7909 9.79686 19.5666 10.0212C19.3422 10.2455 19.2162 10.5497 19.2162 10.867V11.6644H21.6084V10.867Z" fill="white"/>
<path d="M17.2227 24.2236C16.6313 24.2236 16.0532 24.3989 15.5614 24.7275C15.0697 25.0561 14.6864 25.5231 14.4601 26.0695C14.2337 26.6159 14.1745 27.2172 14.2899 27.7972C14.4053 28.3773 14.6901 28.9101 15.1083 29.3283C15.5265 29.7465 16.0593 30.0313 16.6394 30.1467C17.2194 30.2621 17.8207 30.2029 18.3671 29.9765C18.9135 29.7502 19.3805 29.3669 19.7091 28.8752C20.0376 28.3834 20.213 27.8053 20.213 27.2139C20.2121 26.4211 19.8968 25.661 19.3362 25.1004C18.7756 24.5398 18.0155 24.2245 17.2227 24.2236ZM17.2227 28.41C16.9862 28.41 16.7549 28.3398 16.5582 28.2084C16.3615 28.077 16.2082 27.8902 16.1177 27.6716C16.0271 27.453 16.0034 27.2125 16.0496 26.9805C16.0958 26.7485 16.2097 26.5354 16.377 26.3681C16.5442 26.2008 16.7574 26.0869 16.9894 26.0407C17.2214 25.9946 17.4619 26.0183 17.6805 26.1088C17.899 26.1993 18.0858 26.3526 18.2173 26.5493C18.3487 26.746 18.4188 26.9773 18.4188 27.2139C18.4188 27.5311 18.2928 27.8353 18.0685 28.0596C17.8442 28.284 17.54 28.41 17.2227 28.41Z" fill="white"/>
<path d="M32.3735 24.2236C31.7821 24.2236 31.2039 24.3989 30.7122 24.7275C30.2204 25.0561 29.8372 25.5231 29.6108 26.0695C29.3845 26.6159 29.3253 27.2172 29.4407 27.7972C29.5561 28.3773 29.8409 28.9101 30.2591 29.3283C30.6773 29.7465 31.2101 30.0313 31.7901 30.1467C32.3702 30.2621 32.9714 30.2029 33.5178 29.9765C34.0642 29.7502 34.5313 29.3669 34.8598 28.8752C35.1884 28.3834 35.3638 27.8053 35.3638 27.2139C35.3629 26.4211 35.0476 25.661 34.487 25.1004C33.9264 24.5398 33.1663 24.2245 32.3735 24.2236ZM32.3735 28.41C32.1369 28.41 31.9057 28.3398 31.709 28.2084C31.5123 28.077 31.359 27.8902 31.2684 27.6716C31.1779 27.453 31.1542 27.2125 31.2004 26.9805C31.2465 26.7485 31.3605 26.5354 31.5277 26.3681C31.695 26.2008 31.9081 26.0869 32.1402 26.0407C32.3722 25.9946 32.6127 26.0183 32.8312 26.1088C33.0498 26.1993 33.2366 26.3526 33.368 26.5493C33.4995 26.746 33.5696 26.9773 33.5696 27.2139C33.5696 27.5311 33.4436 27.8353 33.2193 28.0596C32.995 28.284 32.6907 28.41 32.3735 28.41Z" fill="white"/>
<path d="M36.2974 21.7291L33.5846 20.3726C33.1214 19.6567 31.0495 16.4622 30.4565 15.6868C30.4006 15.6138 30.3287 15.5546 30.2463 15.5139C30.1639 15.4732 30.0733 15.452 29.9814 15.452H27.1613L26.0624 13.2541C25.9143 12.9554 25.6855 12.7041 25.4018 12.5288C25.1182 12.3535 24.7911 12.2612 24.4576 12.2623H13.0364C12.7193 12.2627 12.4153 12.3888 12.191 12.6131C11.9668 12.8373 11.8406 13.1413 11.8403 13.4585V26.0177C11.8408 26.4933 12.03 26.9494 12.3664 27.2858C12.7027 27.6221 13.1588 27.8113 13.6345 27.8118H13.6852C13.5977 27.2971 13.6236 26.7694 13.761 26.2657C13.8984 25.762 14.1442 25.2943 14.481 24.8954C14.8178 24.4964 15.2377 24.1758 15.7112 23.9558C16.1848 23.7359 16.7007 23.6219 17.2228 23.6219C17.7449 23.6219 18.2608 23.7359 18.7343 23.9558C19.2079 24.1758 19.6277 24.4964 19.9646 24.8954C20.3014 25.2943 20.5471 25.762 20.6846 26.2657C20.822 26.7694 20.8479 27.2971 20.7604 27.8118H28.836C28.7496 27.3043 28.7733 26.7842 28.9057 26.2867C29.038 25.7892 29.2759 25.326 29.6031 24.9286C29.9302 24.5311 30.3391 24.2087 30.8019 23.9833C31.2647 23.7578 31.7706 23.6346 32.2853 23.622C32.7999 23.6093 33.3113 23.7076 33.7846 23.91C34.2579 24.1125 34.6821 24.4144 35.0284 24.7953C35.3747 25.1762 35.635 25.6271 35.7917 26.1175C35.9483 26.6079 35.9975 27.1263 35.9361 27.6374C36.242 27.4914 36.5004 27.2618 36.6813 26.9752C36.8623 26.6886 36.9584 26.3566 36.9587 26.0177V22.7989C36.9594 22.5766 36.8979 22.3586 36.781 22.1695C36.6641 21.9804 36.4966 21.8278 36.2974 21.7291ZM23.6021 19.0403C23.6021 19.1989 23.5391 19.3511 23.4269 19.4632C23.3147 19.5754 23.1626 19.6384 23.004 19.6384H21.6085V21.0338C21.6085 21.1925 21.5455 21.3446 21.4334 21.4567C21.3212 21.5689 21.1691 21.6319 21.0105 21.6319H19.8144C19.6558 21.6319 19.5036 21.5689 19.3915 21.4567C19.2793 21.3446 19.2163 21.1925 19.2163 21.0338V19.6384H17.8209C17.6622 19.6384 17.5101 19.5754 17.398 19.4632C17.2858 19.3511 17.2228 19.1989 17.2228 19.0403V17.8442C17.2228 17.6856 17.2858 17.5335 17.398 17.4213C17.5101 17.3092 17.6622 17.2462 17.8209 17.2462H19.2163V15.8507C19.2163 15.6921 19.2793 15.54 19.3915 15.4278C19.5036 15.3156 19.6558 15.2526 19.8144 15.2526H21.0105C21.1691 15.2526 21.3212 15.3156 21.4334 15.4278C21.5455 15.54 21.6085 15.6921 21.6085 15.8507V17.2462H23.004C23.1626 17.2462 23.3147 17.3092 23.4269 17.4213C23.5391 17.5335 23.6021 17.6856 23.6021 17.8442V19.0403ZM29.1839 23.0274H28.4364C28.2778 23.0274 28.1256 22.9644 28.0135 22.8522C27.9013 22.7401 27.8383 22.5879 27.8383 22.4293C27.8383 22.2707 27.9013 22.1186 28.0135 22.0064C28.1256 21.8943 28.2778 21.8313 28.4364 21.8313H29.1839C29.3426 21.8313 29.4947 21.8943 29.6068 22.0064C29.719 22.1186 29.782 22.2707 29.782 22.4293C29.782 22.5879 29.719 22.7401 29.6068 22.8522C29.4947 22.9644 29.3426 23.0274 29.1839 23.0274ZM32.3103 20.4856H28.3865C28.2279 20.4856 28.0758 20.4226 27.9636 20.3105C27.8515 20.1983 27.7885 20.0462 27.7885 19.8876V16.8474C27.7885 16.6888 27.8515 16.5367 27.9636 16.4246C28.0758 16.3124 28.2279 16.2494 28.3865 16.2494H29.7471C29.8445 16.2494 29.9405 16.2732 30.0266 16.3187C30.1128 16.3643 30.1865 16.4302 30.2414 16.5107C30.964 17.5697 32.0292 19.2038 32.5614 20.024C32.5907 20.0691 32.6072 20.1214 32.6093 20.1751C32.6114 20.2289 32.5989 20.2822 32.5732 20.3295C32.5474 20.3768 32.5094 20.4162 32.4632 20.4437C32.4169 20.4712 32.3641 20.4857 32.3103 20.4856Z" fill="white"/>
</svg>
