<svg width="20" height="20" viewBox="0 0 20 20" fill="none" xmlns="http://www.w3.org/2000/svg">
<g clip-path="url(#clip0_85_3266)">
<path fill-rule="evenodd" clip-rule="evenodd" d="M7.80925 12.3719L9.32254 10.9708H7.64655V9.04449H8.43567L6.96026 7.66425L5.54309 9.02185H6.26645V11.3378C6.27149 12.0527 6.387 12.3771 6.98977 12.3841L7.80925 12.3719Z" fill="#343434"/>
<path fill-rule="evenodd" clip-rule="evenodd" d="M12.3738 7.6745L10.8613 9.07558H12.5373V11.002H11.7474L13.2236 12.3839L14.64 11.0246H13.9175V8.7103C13.9115 7.99458 13.7969 7.67018 13.1941 7.66406L12.3738 7.6745Z" fill="#343434"/>
<path fill-rule="evenodd" clip-rule="evenodd" d="M12.3699 12.3786L11.0117 10.8184V12.5456H9.14434V11.7307L7.80469 13.2544L9.12158 14.7154V13.9692H11.3658C12.0597 13.9649 12.3733 13.8449 12.3809 13.223L12.3699 12.3786Z" fill="#343434"/>
<path fill-rule="evenodd" clip-rule="evenodd" d="M7.81566 7.66881L9.17385 9.22905V7.50097H11.0412V8.31586L12.3809 6.79217L11.064 5.33105V6.07813H8.81975C8.1259 6.08249 7.81229 6.20165 7.80469 6.82345L7.81566 7.66881Z" fill="#343434"/>
<path fill-rule="evenodd" clip-rule="evenodd" d="M1.78219 5.72559C1.59166 6.04039 1.43063 6.04215 1.28647 7.38059C1.1423 8.71819 1.96598 10.1288 1.96598 10.1288C1.96598 10.1288 1.88083 9.48267 2.27539 8.94867C2.67079 8.41555 3.45653 7.62411 3.82579 7.09099C4.19506 6.55787 4.29117 5.87603 4.29117 5.87603C3.95141 6.03519 3.57371 6.12391 3.17578 6.12391C2.66657 6.12391 2.19023 5.97779 1.78219 5.72559Z" fill="#343434"/>
<path fill-rule="evenodd" clip-rule="evenodd" d="M5.0817 3.37166C5.0817 4.46228 4.22599 5.34588 3.16962 5.34588C2.11242 5.34588 1.25586 4.46228 1.25586 3.37166C1.25586 2.28107 2.11242 1.39746 3.16962 1.39746C4.22599 1.39746 5.0817 2.28107 5.0817 3.37166Z" fill="#343434"/>
<path fill-rule="evenodd" clip-rule="evenodd" d="M5.34583 1.71026C5.34583 1.71026 6.8153 0.615312 8.29148 0.402236C9.76685 0.188291 11.8855 0.554432 11.8855 0.554432C11.8855 0.554432 10.8637 0.627488 10.2297 1.01276C9.59488 1.39716 9.0882 1.98682 8.33534 2.68605C7.58162 3.38789 7.05051 3.84361 6.51937 4.10279C6.17624 4.26975 5.88201 4.30975 5.7176 4.31759C5.82048 4.02191 5.87693 3.70359 5.87693 3.37137C5.87693 2.74954 5.67968 2.17467 5.34583 1.71026Z" fill="#343434"/>
<path fill-rule="evenodd" clip-rule="evenodd" d="M6.01172 18.6889C6.31692 18.888 6.31863 19.0524 7.61609 19.2011C8.91189 19.3507 10.2794 18.501 10.2794 18.501C10.2794 18.501 9.65297 18.5889 9.13617 18.181C8.61933 17.7748 7.85131 16.9634 7.33536 16.5825C6.81856 16.2016 6.15759 16.1016 6.15759 16.1016C6.31103 16.4529 6.39703 16.8425 6.39703 17.2522C6.39703 17.7774 6.25624 18.2697 6.01172 18.6889Z" fill="#343434"/>
<path fill-rule="evenodd" clip-rule="evenodd" d="M3.73018 15.2852C4.78741 15.2852 5.64396 16.1705 5.64396 17.2594C5.64396 18.3508 4.78741 19.2336 3.73018 19.2336C2.67212 19.2336 1.81641 18.3508 1.81641 17.2594C1.81641 16.1705 2.67212 15.2852 3.73018 15.2852Z" fill="#343434"/>
<path fill-rule="evenodd" clip-rule="evenodd" d="M2.11817 15.0128C2.11817 15.0128 1.05675 13.4987 0.850194 11.975C0.642799 10.4521 0.997731 8.2666 0.997731 8.2666C0.997731 8.2666 1.06855 9.32068 1.44119 9.97552C1.81467 10.6304 2.38543 11.1531 3.0641 11.9306C3.74361 12.7064 4.18622 13.2543 4.43661 13.8022C4.59932 14.157 4.63809 14.4597 4.64484 14.631C4.35905 14.524 4.05049 14.4658 3.72843 14.4658C3.1248 14.4658 2.56837 14.6693 2.11817 15.0128Z" fill="#343434"/>
<path fill-rule="evenodd" clip-rule="evenodd" d="M18.4026 14.3213C18.594 14.0074 18.755 14.0047 18.8992 12.6672C19.0434 11.3287 18.2197 9.91895 18.2197 9.91895C18.2197 9.91895 18.3049 10.5651 17.9103 11.0982C17.5149 11.6314 16.7292 12.4237 16.3599 12.9559C15.9898 13.4899 15.8945 14.1709 15.8945 14.1709C16.2343 14.0126 16.612 13.9239 17.0099 13.9239C17.5183 13.9239 17.9955 14.0691 18.4026 14.3213Z" fill="#343434"/>
<path fill-rule="evenodd" clip-rule="evenodd" d="M15.1035 16.6754C15.1035 15.5865 15.9601 14.7012 17.0156 14.7012C18.0736 14.7012 18.9302 15.5865 18.9302 16.6754C18.9302 17.7669 18.0736 18.6496 17.0156 18.6496C15.9601 18.6496 15.1035 17.7669 15.1035 16.6754Z" fill="#343434"/>
<path fill-rule="evenodd" clip-rule="evenodd" d="M14.8388 18.337C14.8388 18.337 13.3693 19.432 11.8931 19.645C10.4169 19.8581 8.29907 19.4928 8.29907 19.4928C8.29907 19.4928 9.32088 19.4189 9.95486 19.0345C10.5897 18.6501 11.0964 18.0613 11.8492 17.3604C12.6021 16.6602 13.1332 16.2028 13.6652 15.9445C14.0083 15.7775 14.3017 15.7366 14.467 15.7297C14.3641 16.0245 14.3076 16.3437 14.3076 16.675C14.3076 17.2978 14.5049 17.8726 14.8388 18.3362V18.337Z" fill="#343434"/>
<path fill-rule="evenodd" clip-rule="evenodd" d="M14.1727 1.35719C13.8675 1.16064 13.8658 0.994529 12.5691 0.845809C11.2716 0.697093 9.90417 1.54505 9.90417 1.54505C9.90417 1.54505 10.5306 1.45807 11.0482 1.86596C11.565 2.27211 12.3322 3.08353 12.849 3.46359C13.3658 3.84451 14.0268 3.94453 14.0268 3.94453C13.8734 3.59404 13.7865 3.20442 13.7865 2.79393C13.7865 2.26863 13.9281 1.77725 14.1727 1.35719Z" fill="#343434"/>
<path fill-rule="evenodd" clip-rule="evenodd" d="M16.4548 4.76111C15.3984 4.76111 14.541 3.87748 14.541 2.78689C14.541 1.69716 15.3984 0.812683 16.4548 0.812683C17.512 0.812683 18.3686 1.69716 18.3686 2.78689C18.3686 3.87748 17.512 4.76111 16.4548 4.76111Z" fill="#343434"/>
<path fill-rule="evenodd" clip-rule="evenodd" d="M18.0666 5.0332C18.0666 5.0332 19.1272 6.5482 19.3346 8.07192C19.5411 9.59388 19.1862 11.7794 19.1862 11.7794C19.1862 11.7794 19.1154 10.7253 18.7419 10.0705C18.3692 9.4156 17.7993 8.89376 17.1198 8.118C16.4411 7.34048 15.9977 6.79172 15.7473 6.24468C15.5846 5.88984 15.5458 5.58632 15.5391 5.41588C15.8249 5.52284 16.1334 5.58024 16.4555 5.58024C17.0591 5.58024 17.6155 5.37672 18.0658 5.0332H18.0666Z" fill="#343434"/>
</g>
<defs>
<clipPath id="clip0_85_3266">
<rect width="19" height="20" fill="white" transform="translate(0.5)"/>
</clipPath>
</defs>
</svg>
