<svg width="24" height="24" viewBox="0 0 24 24" fill="none" xmlns="http://www.w3.org/2000/svg">
<path d="M2 5.5C2 4.67188 2.70547 4 3.575 4H14.075C14.9445 4 15.65 4.67188 15.65 5.5V7H17.3136C17.8714 7 18.4062 7.20937 18.8 7.58437L21.3364 10C21.7302 10.375 21.95 10.8844 21.95 11.4156V12V13V15C22.5308 15 23 15.4469 23 16C23 16.5531 22.5308 17 21.95 17H20.9C20.9 18.6562 19.4891 20 17.75 20C16.0109 20 14.6 18.6562 14.6 17H10.4C10.4 18.6562 8.98906 20 7.25 20C5.51094 20 4.1 18.6562 4.1 17H3.575C2.70547 17 2 16.3281 2 15.5V5.5ZM15.65 12H19.85V11.4156L17.3136 9H15.65V12ZM7.25 18.5C7.66772 18.5 8.06832 18.342 8.36369 18.0607C8.65906 17.7794 8.825 17.3978 8.825 17C8.825 16.6022 8.65906 16.2206 8.36369 15.9393C8.06832 15.658 7.66772 15.5 7.25 15.5C6.83228 15.5 6.43168 15.658 6.13631 15.9393C5.84094 16.2206 5.675 16.6022 5.675 17C5.675 17.3978 5.84094 17.7794 6.13631 18.0607C6.43168 18.342 6.83228 18.5 7.25 18.5ZM19.325 17C19.325 16.6022 19.1591 16.2206 18.8637 15.9393C18.5683 15.658 18.1677 15.5 17.75 15.5C17.3323 15.5 16.9317 15.658 16.6363 15.9393C16.3409 16.2206 16.175 16.6022 16.175 17C16.175 17.3978 16.3409 17.7794 16.6363 18.0607C16.9317 18.342 17.3323 18.5 17.75 18.5C18.1677 18.5 18.5683 18.342 18.8637 18.0607C19.1591 17.7794 19.325 17.3978 19.325 17ZM7.775 6.5V8H6.2C5.91125 8 5.675 8.225 5.675 8.5V9.5C5.675 9.775 5.91125 10 6.2 10H7.775V11.5C7.775 11.775 8.01125 12 8.3 12H9.35C9.63875 12 9.875 11.775 9.875 11.5V10H11.45C11.7387 10 11.975 9.775 11.975 9.5V8.5C11.975 8.225 11.7387 8 11.45 8H9.875V6.5C9.875 6.225 9.63875 6 9.35 6H8.3C8.01125 6 7.775 6.225 7.775 6.5Z" fill="#343434"/>
</svg>
