<svg width="188" height="48" viewBox="0 0 188 48" fill="none" xmlns="http://www.w3.org/2000/svg">
<rect x="0.5" y="0.5" width="47" height="47" rx="7.83333" fill="#379BFF"/>
<mask id="mask0_85_3246" style="mask-type:alpha" maskUnits="userSpaceOnUse" x="10" y="10" width="28" height="28">
<rect x="10.5714" y="10.5714" width="26.8571" height="26.8571" fill="#D9D9D9"/>
</mask>
<g mask="url(#mask0_85_3246)">
<path d="M23.9999 34.0714C23.6642 34.0714 23.3425 34.0108 23.0347 33.8896C22.727 33.7684 22.4519 33.5865 22.2094 33.3441L14.7118 25.8185C14.0591 25.1657 13.5788 24.4197 13.2711 23.5804C12.9633 22.7411 12.8094 21.8645 12.8094 20.9506C12.8094 19.0296 13.4342 17.379 14.6839 15.9988C15.9335 14.6187 17.4908 13.9286 19.3559 13.9286C20.2511 13.9286 21.0951 14.1058 21.8877 14.4601C22.6804 14.8145 23.3844 15.3087 23.9999 15.9429C24.5968 15.3087 25.2915 14.8145 26.0842 14.4601C26.8768 14.1058 27.7208 13.9286 28.616 13.9286C30.4811 13.9286 32.0431 14.6187 33.302 15.9988C34.5609 17.379 35.1904 19.0203 35.1904 20.9226C35.1904 21.8365 35.0319 22.7131 34.7148 23.5524C34.3977 24.3917 33.9221 25.1377 33.288 25.7905L25.7624 33.3441C25.52 33.5865 25.2495 33.7684 24.9511 33.8896C24.6527 34.0108 24.3356 34.0714 23.9999 34.0714ZM25.119 19.5238C25.3055 19.5238 25.4827 19.5705 25.6505 19.6637C25.8184 19.757 25.9489 19.8782 26.0422 20.0274L27.9446 22.881H32.5886C32.7192 22.5639 32.8171 22.2422 32.8824 21.9158C32.9476 21.5894 32.9803 21.2584 32.9803 20.9226C32.943 19.6357 32.514 18.5307 31.6934 17.6075C30.8727 16.6842 29.8469 16.2226 28.616 16.2226C28.0378 16.2226 27.483 16.3345 26.9514 16.5584C26.4199 16.7822 25.9583 17.1085 25.5666 17.5375L24.8112 18.3488C24.718 18.4607 24.5968 18.5493 24.4475 18.6146C24.2983 18.6799 24.1491 18.7125 23.9999 18.7125C23.8507 18.7125 23.7015 18.6799 23.5523 18.6146C23.4031 18.5493 23.2725 18.4607 23.1606 18.3488L22.4053 17.5375C22.0136 17.1085 21.5567 16.7728 21.0344 16.5304C20.5122 16.2879 19.9527 16.1667 19.3559 16.1667C18.1249 16.1667 17.0991 16.6376 16.2785 17.5795C15.4579 18.5213 15.0475 19.6357 15.0475 20.9226C15.0475 21.2584 15.0755 21.5894 15.1315 21.9158C15.1874 22.2422 15.2807 22.5639 15.4112 22.881H20.6428C20.8293 22.881 21.0065 22.9276 21.1743 23.0209C21.3422 23.1141 21.4727 23.2353 21.566 23.3845L22.5452 24.8393L24.0559 20.3072C24.1305 20.0834 24.2657 19.8968 24.4615 19.7476C24.6574 19.5984 24.8765 19.5238 25.119 19.5238ZM25.4547 23.1607L23.944 27.6929C23.8694 27.9167 23.7295 28.1032 23.5243 28.2524C23.3192 28.4016 23.0954 28.4762 22.8529 28.4762C22.6664 28.4762 22.4892 28.4296 22.3214 28.3363C22.1535 28.2431 22.0229 28.1218 21.9297 27.9726L20.0273 25.1191H17.1737L23.8041 31.7494C23.8414 31.7867 23.874 31.81 23.902 31.8194C23.93 31.8287 23.9626 31.8334 23.9999 31.8334C24.0372 31.8334 24.0699 31.8287 24.0978 31.8194C24.1258 31.81 24.1585 31.7867 24.1958 31.7494L30.7981 25.1191H27.3571C27.1706 25.1191 26.9934 25.0724 26.8255 24.9792C26.6577 24.8859 26.5178 24.7647 26.4059 24.6155L25.4547 23.1607Z" fill="white"/>
</g>
<path d="M59.5522 17.5H57.6254V6.07564H59.5522V9.53705L59.484 11.7708L61.1379 9.89513L64.7528 6.07564H67.0888L62.0587 11.4638L61.8541 11.6003L59.5522 14.0215V17.5ZM67.3276 17.5H65.0256L60.9504 11.2251L62.4338 9.98038L67.3276 17.5ZM70.3559 17.5H68.4462V6.07564H70.3559V17.5ZM74.2857 8.01949H72.3759V6.07564H74.2857V8.01949ZM74.2857 17.5H72.3759V9.19603H74.2857V17.5ZM83.6378 17.5H81.711V12.3164C81.711 11.8049 81.603 11.39 81.387 11.0717C81.171 10.7534 80.7391 10.5942 80.0911 10.5942C79.625 10.5942 79.2556 10.6909 78.9828 10.8841C78.71 11.066 78.511 11.3274 78.386 11.6685C78.2723 11.9981 78.2155 12.3903 78.2155 12.845L78.1132 12.0606C78.17 11.5491 78.3064 11.0603 78.5224 10.5942C78.7384 10.1282 79.051 9.75303 79.4602 9.46885C79.8694 9.17329 80.3924 9.02551 81.0289 9.02551C81.836 9.02551 82.4726 9.25855 82.9387 9.72462C83.4047 10.1907 83.6378 10.8557 83.6378 11.7196V17.5ZM78.2155 17.5H76.3057V9.19603H78.2155V17.5ZM87.5071 8.01949H85.5973V6.07564H87.5071V8.01949ZM87.5071 17.5H85.5973V9.19603H87.5071V17.5ZM91.4369 17.5H89.5271V6.07564H91.4369V11.3104L91.3687 12.9132L92.7328 11.4127L95.0006 9.19603H97.3366L93.142 13.2883L92.9374 13.3565L91.4369 14.8571V17.5ZM97.3366 17.5H95.1029L92.3406 13.0837L93.7388 12.1459L97.3366 17.5ZM60.8603 42.5H58.1077V26.1795H61.4936L65.0013 33.341L66.609 37.5064L68.2167 33.341L71.7244 26.1795H75.1103V42.5H72.3577V34.8269L72.6987 29.4436L70.8231 34.1449L67.9974 39.7474H65.2205L62.3949 34.1449L60.4705 29.4436L60.8603 34.8269V42.5ZM80.8852 28.9564H78.157V26.1795H80.8852V28.9564ZM80.8852 42.5H78.157V30.6372H80.8852V42.5ZM88.0582 42.7679C87.3112 42.7679 86.6697 42.6218 86.1338 42.3295C85.6142 42.0372 85.2163 41.6312 84.9402 41.1115C84.6642 40.5756 84.5261 39.9585 84.5261 39.2603V29.2L87.2543 27.4705V38.6026C87.2543 39.2359 87.3843 39.6662 87.6441 39.8936C87.9202 40.1047 88.2612 40.2103 88.6672 40.2103C89.1219 40.2103 89.5116 40.056 89.8364 39.7474C90.1774 39.4389 90.4373 39.1141 90.6159 38.7731L91.4685 41.209C91.2086 41.5825 90.7864 41.9397 90.2018 42.2808C89.6334 42.6056 88.9189 42.7679 88.0582 42.7679ZM90.8838 32.7564H82.6749V30.6372H90.8838V32.7564ZM95.5387 42.5H92.8105V30.6372H95.5387V42.5ZM95.5387 35.9718L95.3925 34.8756C95.4575 34.3235 95.5793 33.7795 95.7579 33.2436C95.9528 32.7077 96.2045 32.2286 96.513 31.8064C96.8378 31.3679 97.2276 31.0269 97.6823 30.7833C98.1532 30.5235 98.6891 30.3936 99.29 30.3936C100.037 30.3936 100.654 30.6291 101.141 31.1C101.628 31.5709 101.872 32.253 101.872 33.1462C101.872 33.6983 101.807 34.1855 101.677 34.6077C101.563 35.0137 101.45 35.306 101.336 35.4846H98.5348C98.7297 35.2897 98.9002 35.0218 99.0464 34.6808C99.2088 34.3235 99.29 33.9744 99.29 33.6333C99.29 33.3085 99.2006 33.0325 99.022 32.8051C98.8596 32.5615 98.5754 32.4397 98.1695 32.4397C97.7148 32.4397 97.2844 32.6021 96.8784 32.9269C96.4887 33.2355 96.1639 33.6577 95.9041 34.1936C95.6605 34.7295 95.5387 35.3222 95.5387 35.9718ZM114.013 42.5H112.308C111.902 42.5 111.528 42.4269 111.187 42.2808C110.846 42.1346 110.57 41.8991 110.359 41.5744C110.148 41.2333 110.042 40.7786 110.042 40.2103V35.6795V35.3141C110.042 34.5671 109.888 33.9662 109.579 33.5115C109.287 33.0406 108.678 32.8051 107.752 32.8051C106.957 32.8051 106.258 33.0081 105.658 33.4141C105.057 33.8201 104.586 34.3397 104.245 34.9731L102.613 33.0244C102.921 32.6021 103.327 32.1962 103.831 31.8064C104.35 31.4004 104.959 31.0675 105.658 30.8077C106.356 30.5316 107.143 30.3936 108.02 30.3936C109.482 30.3936 110.611 30.7996 111.406 31.6115C112.218 32.4073 112.624 33.5359 112.624 34.9974V39.4551C112.624 39.715 112.673 39.9017 112.77 40.0154C112.884 40.1128 113.046 40.1615 113.258 40.1615H114.013V42.5ZM106.072 42.7436C105.097 42.7436 104.326 42.4919 103.758 41.9885C103.205 41.485 102.929 40.803 102.929 39.9423C102.929 39.0979 103.205 38.4077 103.758 37.8718C104.31 37.3197 105.073 36.8568 106.047 36.4833L110.383 34.6564L110.7 36.3859L107.022 38.0423C106.502 38.2697 106.128 38.497 105.901 38.7244C105.69 38.9517 105.584 39.2197 105.584 39.5282C105.584 39.8692 105.698 40.1372 105.926 40.3321C106.169 40.5269 106.543 40.6244 107.046 40.6244C107.501 40.6244 107.907 40.5594 108.264 40.4295C108.637 40.2996 108.954 40.1209 109.214 39.8936C109.49 39.65 109.693 39.3658 109.823 39.041C109.969 38.7162 110.042 38.3509 110.042 37.9449L110.115 39.0897C110.018 39.6256 109.815 40.1778 109.506 40.7462C109.198 41.3145 108.759 41.7936 108.191 42.1833C107.639 42.5568 106.932 42.7436 106.072 42.7436ZM127.889 42.5H125.137V26.1795H127.889V42.5ZM132.907 28.6154H120.119V26.1795H132.907V28.6154ZM143.343 42.5H141.638C141.232 42.5 140.859 42.4269 140.518 42.2808C140.177 42.1346 139.901 41.8991 139.69 41.5744C139.478 41.2333 139.373 40.7786 139.373 40.2103V35.6795V35.3141C139.373 34.5671 139.219 33.9662 138.91 33.5115C138.618 33.0406 138.009 32.8051 137.083 32.8051C136.287 32.8051 135.589 33.0081 134.988 33.4141C134.387 33.8201 133.916 34.3397 133.575 34.9731L131.943 33.0244C132.252 32.6021 132.658 32.1962 133.161 31.8064C133.681 31.4004 134.29 31.0675 134.988 30.8077C135.687 30.5316 136.474 30.3936 137.351 30.3936C138.813 30.3936 139.941 30.7996 140.737 31.6115C141.549 32.4073 141.955 33.5359 141.955 34.9974V39.4551C141.955 39.715 142.004 39.9017 142.101 40.0154C142.215 40.1128 142.377 40.1615 142.588 40.1615H143.343V42.5ZM135.402 42.7436C134.428 42.7436 133.657 42.4919 133.088 41.9885C132.536 41.485 132.26 40.803 132.26 39.9423C132.26 39.0979 132.536 38.4077 133.088 37.8718C133.64 37.3197 134.404 36.8568 135.378 36.4833L139.714 34.6564L140.031 36.3859L136.352 38.0423C135.833 38.2697 135.459 38.497 135.232 38.7244C135.021 38.9517 134.915 39.2197 134.915 39.5282C134.915 39.8692 135.029 40.1372 135.256 40.3321C135.5 40.5269 135.873 40.6244 136.377 40.6244C136.831 40.6244 137.237 40.5594 137.595 40.4295C137.968 40.2996 138.285 40.1209 138.545 39.8936C138.821 39.65 139.024 39.3658 139.154 39.041C139.3 38.7162 139.373 38.3509 139.373 37.9449L139.446 39.0897C139.348 39.6256 139.145 40.1778 138.837 40.7462C138.528 41.3145 138.09 41.7936 137.522 42.1833C136.969 42.5568 136.263 42.7436 135.402 42.7436ZM162.773 42.5H160.045V35.0949C160.045 34.2667 159.866 33.6496 159.509 33.2436C159.152 32.8376 158.567 32.6346 157.755 32.6346C157.219 32.6346 156.781 32.7726 156.44 33.0487C156.115 33.3085 155.872 33.6821 155.709 34.1692C155.547 34.6402 155.466 35.2004 155.466 35.85L155.319 34.7295C155.401 33.9987 155.587 33.3004 155.88 32.6346C156.188 31.9688 156.619 31.4329 157.171 31.0269C157.739 30.6047 158.454 30.3936 159.314 30.3936C160.435 30.3936 161.287 30.7265 161.872 31.3923C162.473 32.0581 162.773 33.0081 162.773 34.2423V42.5ZM148.158 42.5H145.43V30.6372H148.158V42.5ZM155.466 42.5H152.737V35.0949C152.737 34.2667 152.559 33.6496 152.201 33.2436C151.844 32.8376 151.26 32.6346 150.448 32.6346C149.912 32.6346 149.473 32.7726 149.132 33.0487C148.807 33.3085 148.564 33.6821 148.401 34.1692C148.239 34.6402 148.158 35.2004 148.158 35.85L148.012 34.7295C148.093 33.9987 148.28 33.3004 148.572 32.6346C148.881 31.9688 149.311 31.4329 149.863 31.0269C150.431 30.6047 151.146 30.3936 152.007 30.3936C153.127 30.3936 153.98 30.7265 154.564 31.3923C155.165 32.0581 155.466 33.0081 155.466 34.2423V42.5ZM174.823 42.5H164.349V40.3808L169.684 34.4372L171.437 32.8538L168.661 32.9756H164.787V30.6372H174.58V32.7808L169.245 38.5295L167.369 40.3077L170.439 40.1859H174.823V42.5ZM179.748 28.9564H177.02V26.1795H179.748V28.9564ZM179.748 42.5H177.02V30.6372H179.748V42.5ZM185.362 42.5H182.634V26.1795H185.362V42.5Z" fill="black"/>
</svg>
