<svg width="34" height="35" viewBox="0 0 34 35" fill="none" xmlns="http://www.w3.org/2000/svg">
<g id="notifications">
<mask id="mask0_85_3230" style="mask-type:alpha" maskUnits="userSpaceOnUse" x="0" y="0" width="34" height="35">
<rect id="Bounding box" y="0.5" width="34" height="34" fill="#D9D9D9"/>
</mask>
<g mask="url(#mask0_85_3230)">
<path id="notifications_2" d="M6.84723 27.4166C6.51275 27.4166 6.23237 27.3031 6.00608 27.076C5.77982 26.849 5.66668 26.5676 5.66668 26.232C5.66668 25.8963 5.77982 25.6163 6.00608 25.392C6.23237 25.1677 6.51275 25.0556 6.84723 25.0556H8.50002V14.5722C8.50002 12.5967 9.08636 10.8318 10.2591 9.2774C11.4317 7.72301 12.9704 6.73331 14.875 6.30831V5.45831C14.875 4.86804 15.0816 4.3663 15.4948 3.9531C15.908 3.53991 16.4097 3.33331 17 3.33331C17.5903 3.33331 18.092 3.53991 18.5052 3.9531C18.9184 4.3663 19.125 4.86804 19.125 5.45831V6.30831C21.0297 6.73331 22.5683 7.72301 23.741 9.2774C24.9137 10.8318 25.5 12.5967 25.5 14.5722V25.0556H27.1528C27.4873 25.0556 27.7677 25.1691 27.994 25.3962C28.2202 25.6232 28.3334 25.9046 28.3334 26.2402C28.3334 26.5759 28.2202 26.8559 27.994 27.0802C27.7677 27.3045 27.4873 27.4166 27.1528 27.4166H6.84723ZM17 31.6666C16.2209 31.6666 15.5538 31.3892 14.999 30.8344C14.4441 30.2795 14.1667 29.6125 14.1667 28.8333H19.8334C19.8334 29.6125 19.5559 30.2795 19.0011 30.8344C18.4462 31.3892 17.7792 31.6666 17 31.6666ZM10.8611 25.0556H23.1389V14.5722C23.1389 12.8722 22.5408 11.424 21.3445 10.2277C20.1482 9.03145 18.7 8.43331 17 8.43331C15.3 8.43331 13.8519 9.03145 12.6556 10.2277C11.4593 11.424 10.8611 12.8722 10.8611 14.5722V25.0556Z" fill="#1C1B1F"/>
</g>
</g>
</svg>
