<svg width="44" height="44" viewBox="0 0 44 44" fill="none" xmlns="http://www.w3.org/2000/svg">
<circle cx="22" cy="22" r="22" fill="#FF722C"/>
<path d="M17.3955 21.1072L17.3777 21.3466C17.3439 21.7992 16.9061 22.2005 16.4609 22.187L16.2254 22.1798C15.5871 22.1603 15.0255 21.9101 14.6399 21.4733L12.8297 19.4228C12.4664 19.0112 12.2805 18.4582 12.3014 17.851L12.3129 17.519C12.3292 17.0458 12.7961 16.6177 13.2597 16.6512L13.5849 16.6746C14.1797 16.7175 14.6998 16.9642 15.0631 17.3757L16.8733 19.4262C17.2589 19.863 17.4438 20.4584 17.3955 21.1072Z" fill="white"/>
<path d="M12.2998 22.1871H9.77786V15.1294C9.77786 14.673 10.141 14.303 10.5888 14.303H11.4888C11.9367 14.303 12.2998 14.673 12.2998 15.1294V22.1871H12.2998Z" fill="white"/>
<path d="M18.8991 27.6567H34.2221V24.0127C34.2221 24.5149 33.8227 24.9219 33.3298 24.9219H18.2955C17.8027 24.9219 17.4032 24.5149 17.4032 24.0127V22.1871H9.77777V27.6567H14.5274H18.8991Z" fill="white"/>
<path d="M34.2222 22.9351C34.2222 22.2773 33.866 21.6692 33.2912 21.3698C32.7415 21.0833 31.893 20.8317 30.6086 20.8317C27.6276 20.8317 17.403 20.8317 17.403 20.8317V24.0124C17.403 24.5147 17.8026 24.9218 18.2954 24.9218H33.3298C33.8227 24.9218 34.2222 24.5147 34.2222 24.0124V22.9351Z" fill="white"/>
<path d="M11.0391 14.3031C11.7355 14.3031 12.3001 13.7278 12.3001 13.0182C12.3001 12.3086 11.7355 11.7333 11.0391 11.7333C10.3427 11.7333 9.77814 12.3086 9.77814 13.0182C9.77814 13.7278 10.3427 14.3031 11.0391 14.3031Z" fill="white"/>
<path d="M9.77786 27.6567V31.2889H11.4926C11.4926 31.2889 11.7358 28.6694 13.0127 27.6567H9.77786Z" fill="white"/>
<path d="M34.2222 27.6567V31.2889H32.5074C32.5074 31.2889 32.2643 28.6694 30.9874 27.6567H34.2222Z" fill="white"/>
</svg>
