<svg width="20" height="20" viewBox="0 0 20 20" fill="none" xmlns="http://www.w3.org/2000/svg">
<g clip-path="url(#clip0_85_3287)">
<path d="M6.28956 13.1205V6.6416H2.97158V6.65775C1.34145 6.82029 0.0683594 8.20132 0.0683594 9.88104C0.0683594 11.5608 1.34145 12.9418 2.97158 13.1043V13.1205H6.28956Z" fill="#343434"/>
<path d="M12.9259 4.39923V2.97923H12.91C12.7505 1.31848 11.3949 0.0214844 9.74613 0.0214844C8.09737 0.0214844 6.7418 1.31848 6.58226 2.97923H6.56641V9.31256L12.9259 4.39923Z" fill="#343434"/>
<path d="M12.9259 15.5762L6.56641 10.502V16.5011H6.56982C6.56788 16.5479 6.56641 16.5947 6.56641 16.642C6.56641 18.457 7.99 19.9283 9.74613 19.9283C11.5023 19.9283 12.9259 18.457 12.9259 16.642C12.9259 16.5947 12.9243 16.5479 12.9224 16.5011H12.9259V15.5762Z" fill="#343434"/>
<path d="M12.8338 9.83393V7.08829V4.85449L11.3945 5.99759L6.61719 9.83393H12.8338Z" fill="#343434"/>
<path d="M6.67969 10.1152L12.8345 15.0773V12.5963V10.1152H6.67969Z" fill="#343434"/>
<path d="M18.6332 11.4161C18.5963 11.3877 18.5587 11.3606 18.521 11.334L18.5229 11.3311L16.9197 10.1162H13.1094V15.2269L14.6847 16.4969L14.6867 16.4941C14.7221 16.5239 14.7578 16.5535 14.7949 16.5819C16.2153 17.6774 18.2261 17.4092 19.286 15.9826C20.3461 14.556 20.0538 12.5116 18.6332 11.4161Z" fill="#343434"/>
<path d="M16.9102 9.83367L18.2519 8.82597L18.2499 8.82325C18.2876 8.79667 18.3253 8.76982 18.3624 8.74137C19.7858 7.64982 20.0836 5.60616 19.0275 4.17686C17.9715 2.74738 15.9613 2.47339 14.538 3.56503C14.501 3.59348 14.4652 3.62278 14.4297 3.65254L14.4276 3.64972L13.1113 4.70634V9.83376L16.9102 9.83367Z" fill="#343434"/>
</g>
<defs>
<clipPath id="clip0_85_3287">
<rect width="20" height="20" fill="white"/>
</clipPath>
</defs>
</svg>
