<svg width="44" height="44" viewBox="0 0 44 44" fill="none" xmlns="http://www.w3.org/2000/svg">
<circle cx="22" cy="22" r="22" fill="#2DBE78"/>
<path d="M23.2338 9.01768C22.7666 9.14457 22.4724 9.31762 22.1206 9.67524C21.1746 10.6212 21.1516 12.0863 22.0687 13.0553C22.6166 13.6322 23.1992 13.8687 23.9895 13.8225C24.647 13.7821 25.0393 13.6149 25.5007 13.188C26.5217 12.2305 26.5793 10.7481 25.6391 9.72138C25.0393 9.06382 24.0933 8.78695 23.2338 9.01768Z" fill="white"/>
<path d="M21.3015 14.5781C20.8516 14.7223 20.8459 14.7281 18.6309 16.3374C17.5523 17.1219 16.6409 17.7852 16.6063 17.8025C16.5775 17.8256 15.9257 18.6965 15.1701 19.7463C14.4144 20.7904 13.7742 21.6787 13.7511 21.7133C13.6992 21.7767 15.5046 23.1322 15.6546 23.1438C15.7007 23.1495 16.3006 22.3708 16.9928 21.4191C18.106 19.8848 18.2964 19.6541 18.6713 19.3656C18.902 19.1868 19.0981 19.0484 19.1097 19.0542C19.1212 19.0657 18.9828 19.8963 18.804 20.9057C18.4117 23.1091 18.406 23.3918 18.7405 24.0667C18.8501 24.2916 19.052 24.5858 19.1904 24.7127C19.3289 24.8453 20.3613 25.7221 21.4861 26.6681C22.6109 27.6083 23.5511 28.41 23.5684 28.4504C23.5915 28.485 24.1568 30.0309 24.8316 31.8882C25.5065 33.7455 26.066 35.2683 26.0718 35.2798C26.0891 35.3029 28.2983 34.5012 28.3386 34.455C28.3559 34.4377 27.7618 32.7476 27.012 30.6884L25.6565 26.9565L24.5086 25.9874C23.8799 25.451 23.3031 24.9665 23.2339 24.9146L23.1127 24.8165L23.5107 22.5669C23.7241 21.3326 23.9203 20.2424 23.9318 20.1501L23.9664 19.9771L24.6182 20.6116C24.9758 20.9576 25.495 21.4018 25.7718 21.5864C27.0523 22.44 28.5347 22.9534 29.9825 23.0457L30.5997 23.0803V21.8632V20.6462L30.2709 20.6116C28.4886 20.4212 27.1446 19.781 26.0833 18.6158C25.6334 18.1197 25.4719 17.8371 25.1719 16.995C25.045 16.6373 24.8605 16.2047 24.7682 16.0432C24.0991 14.8723 22.4955 14.1974 21.3015 14.5781Z" fill="white"/>
<path d="M18.4694 27.5102L18.0138 28.8484L16.1968 31.0057C15.1989 32.1939 14.3914 33.186 14.4029 33.2149C14.426 33.2783 16.2372 34.7953 16.2603 34.7665C16.2718 34.755 17.1601 33.6936 18.2387 32.4073L20.1941 30.0713L20.6671 29.0388C20.9266 28.4677 21.1228 27.9832 21.0997 27.9659C20.6209 27.5506 18.9597 26.1778 18.9424 26.1778C18.9309 26.1778 18.7175 26.7777 18.4694 27.5102Z" fill="white"/>
</svg>
